<svg width="50" height="50" viewBox="0 0 50 50" fill="none" xmlns="http://www.w3.org/2000/svg">
<g id="facebook 1">
<path id="Vector" fill-rule="evenodd" clip-rule="evenodd" d="M41.6666 2.08333C45.1185 2.08333 47.9166 4.88156 47.9166 8.33333V41.6667C47.9166 45.1185 45.1185 47.9167 41.6666 47.9167H8.33331C4.88154 47.9167 2.08331 45.1185 2.08331 41.6667V8.33333C2.08331 4.88156 4.88154 2.08333 8.33331 2.08333H41.6666ZM41.6666 6.24999C42.8173 6.24999 43.75 7.18274 43.75 8.33333V41.6667C43.75 42.8173 42.8173 43.75 41.6666 43.75H31.25V29.1665H35.5754C36.4721 29.1665 37.2681 28.5927 37.5519 27.7419L38.4748 24.9731C38.8121 23.9612 38.0589 22.9165 36.9925 22.9165H31.25V18.7498C31.25 17.7082 32.2916 16.6665 33.3333 16.6665H37.5C38.6506 16.6665 39.5833 15.7337 39.5833 14.5832V13.154C39.5833 12.4811 39.1535 11.8777 38.5027 11.706C35.7719 10.9853 33.3333 10.9853 33.3333 10.9853C28.125 10.9853 25 14.5832 25 17.7082V22.9165H20.8333C19.6827 22.9165 18.75 23.8492 18.75 24.9998V27.0831C18.75 28.2337 19.6827 29.1665 20.8333 29.1665H25V43.75H8.33331C7.18273 43.75 6.24998 42.8173 6.24998 41.6667V8.33333C6.24998 7.18274 7.18273 6.24999 8.33331 6.24999H41.6666Z" fill="url(#paint0_linear_25_148)"/>
</g>
<defs>
<linearGradient id="paint0_linear_25_148" x1="25" y1="2.08333" x2="25" y2="47.9167" gradientUnits="userSpaceOnUse">
<stop stop-color="#FF8B03"/>
<stop offset="1" stop-color="#F8DF00"/>
</linearGradient>
</defs>
</svg>
