<svg width="46" height="46" viewBox="0 0 46 46" fill="none" xmlns="http://www.w3.org/2000/svg">
<path d="M23.429 33.6357C23.8978 29.1429 26.8196 26.024 26.8196 26.024C26.7917 25.7967 26.8089 25.5352 26.7418 25.2249C26.7261 25.1518 26.7188 25.0981 26.7017 25.0291C26.6529 24.7727 26.5695 24.4925 26.463 24.2494C26.1278 23.4634 25.7048 22.8929 25.1077 22.2439C24.2414 21.3093 23.2299 21.0164 22.1935 20.8761C22.0158 20.8541 21.8271 20.8457 21.644 20.8457C21.2213 20.8438 21.0411 20.8658 20.6722 20.8739C20.6034 20.8706 20.5883 20.8856 20.5278 20.8851C20.5278 20.8851 17.2005 22.6888 13.9453 23.1301C10.6914 23.5728 8.15086 22.4557 7.67 22.9366C6.92687 23.6797 6.61323 24.0655 6.23657 25.0194C6.12713 25.2842 6.06069 25.5921 6.00912 25.8629C5.92086 26.373 5.96797 26.4119 5.93586 26.7076C5.90757 26.9635 5.95402 27.2695 5.99602 27.5355C6.0238 27.7436 6.07236 27.967 6.13589 28.1699C6.14712 28.1975 6.15703 28.232 6.16555 28.2651C6.2727 28.5881 6.41309 28.9362 6.62324 29.2255L7.30862 30.0776L7.55006 30.319C8.39593 31.0966 10.0275 31.9932 10.9416 32.5166C11.1822 32.6534 11.4271 32.8109 11.6747 32.9656L13.1417 34.1129C13.821 34.7157 14.7602 36.1631 15.2252 36.9996C15.7461 37.9523 16.3896 39.0793 17.1145 39.8835L17.5142 40.2831C18.2989 40.9886 19.2577 41.4174 20.2745 41.5217C21.5835 41.6613 22.7558 41.402 23.8372 40.5982C25.2908 39.5137 22.9602 38.1284 23.429 33.6357Z" fill="url(#paint0_linear_237_2)"/>
<path d="M36.2146 31.5092C36.447 31.4766 36.6695 31.4123 36.8684 31.3078C37.2248 31.1206 37.5076 30.8406 37.6909 30.5075C37.8797 30.1799 37.9828 29.8049 37.927 29.3639C37.4898 29.4403 37.1769 29.5591 36.8983 29.6739C36.6128 29.7818 36.3838 29.8998 36.1685 30.0096C36.0108 30.0896 35.8683 30.1766 35.7203 30.2663C34.692 29.2271 32.2992 29.2222 30.6659 29.8565C28.7813 30.5894 27.7717 32.4676 28.4091 34.0503C29.0465 35.633 31.0894 36.3208 32.9712 35.5852C34.6018 34.9536 36.2197 33.0388 36.2146 31.5092Z" fill="url(#paint1_linear_237_2)"/>
<path d="M29.056 24.5089C30.2111 26.2788 32.8488 26.6188 34.9461 25.2681C36.6967 24.1418 38.1401 21.5689 37.9026 19.7168C38.0152 19.6791 38.1348 19.6566 38.2376 19.601C38.5941 19.4138 38.8769 19.1338 39.0602 18.8006C39.2476 18.4745 39.3521 18.098 39.2935 17.657C38.8563 17.7335 38.5448 17.8536 38.2662 17.9684C37.9807 18.0763 37.7517 18.1943 37.5364 18.3041C37.461 18.3435 37.3924 18.3842 37.3239 18.425C35.983 17.0185 32.737 17.5893 30.7645 18.8598C28.6672 20.2105 27.9009 22.7391 29.056 24.5089Z" fill="url(#paint2_linear_237_2)"/>
<path d="M22.4776 18.1081C24.1906 19.5698 26.9722 19.1165 28.6925 17.0938C30.3322 15.1654 30.9969 11.4286 29.5759 9.81088C29.6139 9.7451 29.652 9.67931 29.69 9.60802C29.8025 9.39275 29.9205 9.16376 30.0271 8.87961C30.1419 8.60103 30.262 8.28945 30.3371 7.85086C29.8947 7.79371 29.5196 7.89679 29.1921 8.0856C28.8617 8.26888 28.5817 8.55167 28.3945 8.90816C28.366 8.96438 28.3555 9.03314 28.3299 9.09214C26.5095 8.70345 23.92 10.1192 22.4944 11.7945C20.7727 13.8186 20.7673 16.6436 22.4776 18.1081Z" fill="url(#paint3_linear_237_2)"/>
<path d="M17.6155 16.41C18.7365 14.5147 18.7727 11.2205 17.3602 9.98831C17.3983 9.92253 17.4363 9.85949 17.4702 9.78954C17.5814 9.57564 17.7022 9.34667 17.8101 9.06116C17.9235 8.78394 18.0423 8.47098 18.1214 8.0338C17.6777 7.97801 17.304 8.07973 16.9765 8.26853C16.6433 8.45179 16.3633 8.73734 16.1748 9.09244C16.1083 9.2172 16.0722 9.36148 16.0334 9.50298C14.4157 9.49723 12.4429 11.0843 11.4767 12.7165C10.2865 14.731 10.6953 17.1889 12.3939 18.2099C14.0883 19.2268 16.428 18.4218 17.6155 16.41Z" fill="url(#paint4_linear_237_2)"/>
<defs>
<linearGradient id="paint0_linear_237_2" x1="25.201" y1="22.3327" x2="12.3823" y2="35.1513" gradientUnits="userSpaceOnUse">
<stop stop-color="#FF8B03"/>
<stop offset="1" stop-color="#F8DF00"/>
</linearGradient>
<linearGradient id="paint1_linear_237_2" x1="36.5692" y1="28.0061" x2="29.3166" y2="35.2588" gradientUnits="userSpaceOnUse">
<stop stop-color="#FF8B03"/>
<stop offset="1" stop-color="#F8DF00"/>
</linearGradient>
<linearGradient id="paint2_linear_237_2" x1="38.2779" y1="16.6414" x2="29.6834" y2="25.2358" gradientUnits="userSpaceOnUse">
<stop stop-color="#FF8B03"/>
<stop offset="1" stop-color="#F8DF00"/>
</linearGradient>
<linearGradient id="paint3_linear_237_2" x1="31.2602" y1="8.774" x2="22.1944" y2="17.8398" gradientUnits="userSpaceOnUse">
<stop stop-color="#FF8B03"/>
<stop offset="1" stop-color="#F8DF00"/>
</linearGradient>
<linearGradient id="paint4_linear_237_2" x1="19.5765" y1="9.48888" x2="11.56" y2="17.5055" gradientUnits="userSpaceOnUse">
<stop stop-color="#FF8B03"/>
<stop offset="1" stop-color="#F8DF00"/>
</linearGradient>
</defs>
</svg>
