<svg width="50" height="50" viewBox="0 0 50 50" fill="none" xmlns="http://www.w3.org/2000/svg">
<g id="tiktok 1">
<path id="Vector" d="M26.025 1.60782C28.5828 1.56876 31.1219 1.58907 33.6594 1.56876C33.7438 4.74219 35.0313 7.59844 37.0797 9.71407L37.0766 9.71094C39.2813 11.6969 42.15 12.9844 45.3125 13.2031L45.3563 13.2063V21.075C42.3688 21 39.5594 20.3109 37.0266 19.1266L37.1547 19.1797C35.9297 18.5906 34.8938 17.9859 33.9094 17.3109L33.9906 17.3641C33.9719 23.0656 34.0094 28.7672 33.9516 34.4484C33.7906 37.3438 32.8281 39.9844 31.2844 42.1891L31.3156 42.1406C28.7344 45.8375 24.5531 48.2641 19.7984 48.4078H19.7766C19.5844 48.4172 19.3578 48.4219 19.1297 48.4219C16.4266 48.4219 13.9 47.6688 11.7469 46.3609L11.8094 46.3969C7.89064 44.0391 5.18751 40.0047 4.68751 35.3125L4.68126 35.2484C4.6422 34.2719 4.62345 33.2953 4.66251 32.3391C5.42814 24.8719 11.6844 19.0953 19.2891 19.0953C20.1438 19.0953 20.9813 19.1688 21.7953 19.3078L21.7078 19.2953C21.7469 22.1844 21.6297 25.075 21.6297 27.9641C20.9688 27.725 20.2063 27.5859 19.4109 27.5859C16.4922 27.5859 14.0094 29.4516 13.0906 32.0563L13.0766 32.1031C12.8688 32.7703 12.7484 33.5375 12.7484 34.3313C12.7484 34.6531 12.7688 34.9719 12.8063 35.2844L12.8031 35.2469C13.3219 38.4438 16.0625 40.8563 19.3672 40.8563C19.4625 40.8563 19.5563 40.8547 19.65 40.85H19.6359C21.9219 40.7813 23.9063 39.5516 25.0281 37.7344L25.0438 37.7063C25.4609 37.125 25.7469 36.4219 25.8422 35.6578L25.8438 35.6359C26.0391 32.1406 25.9609 28.6656 25.9797 25.1703C25.9984 17.3016 25.9609 9.45157 26.0188 1.60313L26.025 1.60782Z" fill="url(#paint0_linear_25_153)"/>
</g>
<defs>
<linearGradient id="paint0_linear_25_153" x1="24.9986" y1="1.56876" x2="24.9986" y2="48.4219" gradientUnits="userSpaceOnUse">
<stop stop-color="#FF8B03"/>
<stop offset="1" stop-color="#F8DF00"/>
</linearGradient>
</defs>
</svg>
