<svg width="717" height="677" viewBox="0 0 717 677" fill="none" xmlns="http://www.w3.org/2000/svg">
<path fill-rule="evenodd" clip-rule="evenodd" d="M142.554 671.634C137.398 665.096 134.954 650.86 137.048 639.56C139.132 628.315 139.842 626.888 161.445 590.491C193.376 536.691 204.749 507.794 226.937 424.081C227.909 420.411 223.192 415.825 218.444 415.825C212.273 415.825 207.549 420.42 204.593 429.299C201.258 439.314 199.072 441.362 190.492 442.51C182.305 443.605 172.554 439.705 168.661 433.78C165.908 429.589 165.917 428.512 168.821 414.243C171.723 399.986 171.733 398.72 169.014 391.619C160.935 370.515 140.988 368.003 129.546 386.65C121.849 399.192 105.082 420.727 95.372 430.539C78.1814 447.911 66.9461 448.467 55.3614 432.514C51.5297 427.237 50.2812 423.652 50.2812 417.925C50.2812 411.327 51.1183 409.565 56.6736 404.473C64.8578 396.97 76.4038 390.568 94.6018 383.443C119.379 373.741 130.291 365.123 136.469 350.377C141.062 339.41 138.926 325.945 132.007 322.25C121.841 316.823 109.875 325.928 89.5002 354.594C70.5985 381.187 60.3705 387.713 39.2582 386.649C24.6632 385.914 17.7409 382.015 9.76579 370.039C2.49335 359.117 0.39207 351.094 1.12208 337.04C1.65982 326.685 2.57254 323.674 7.19506 317C13.6638 307.662 25.4032 299.796 38.4526 296.058C43.7795 294.531 60.2079 292.662 75.9539 291.789C110.784 289.86 121.506 287.749 159.786 275.283C179.138 268.98 184.946 264.651 184.946 256.527C184.946 251.602 177.909 244.657 171.601 243.357C166.967 242.403 131.892 238.987 126.693 238.985C121.959 238.982 113.56 230.655 111.77 224.19C109.193 214.879 112.975 207.365 121.373 205.109C130.314 202.707 136.93 204.792 153.429 215.209C160.919 219.938 172.268 225.397 178.65 227.339C189.792 230.73 190.553 230.755 197.83 227.983C212.472 222.405 214.236 212.566 204.124 192.877C195.782 176.632 180.433 160.272 167.359 153.689C147.622 143.75 134.763 127.964 126.72 103.8C123.518 94.1798 122.768 88.31 122.808 73.192C122.852 56.6116 123.37 53.3825 127.367 44.7537C137.335 23.2407 157.106 22.6431 169.931 43.4669C174.042 50.1419 175.286 55.8306 179.962 89.3461C186.087 133.242 188.43 140.471 201.994 157.314C216.037 174.753 228.394 180.34 236.043 172.709C241.057 167.708 241.769 162.226 238.727 152.052C237.224 147.023 235.552 137.552 235.014 131.005C234.166 120.709 234.748 116.898 239.322 102.772C247.895 76.2966 246.214 64.8499 229.923 38.7784C220.448 23.6136 219.53 17.0079 225.944 10.1601C233.928 1.63568 245.392 -1.73335 249.522 3.23097C250.833 4.80721 251.311 15.9955 251.03 38.5153C250.574 74.9477 249.961 72.1938 264.229 97.8478C269.135 106.67 273.516 125.454 273.559 137.854C273.576 142.747 274.709 147.998 276.208 150.133C280.949 156.885 297.129 158.805 303.959 153.425C305.193 152.452 309.564 146.473 313.673 140.138C317.946 133.548 324.089 126.674 328.028 124.073C333.93 120.178 336.241 119.638 344.203 120.297C351.942 120.937 354.649 122.107 360.423 127.311C365.87 132.22 368.753 133.556 373.898 133.556C387.529 133.556 403.141 120.638 403.141 109.358C403.141 106.614 400.831 99.118 398.008 92.7011C390.427 75.4722 389.999 68.8954 395.405 52.7607C404.728 24.9386 413.078 17.207 433.824 17.1969C451.077 17.1882 462.922 25.4033 465.927 39.4624C467.938 48.869 466.476 55.8538 458.156 76.5917C440.065 121.686 438.944 135.663 452.354 149.041C455.803 152.481 461.841 156.257 465.772 157.432C477.318 160.883 485.542 156.719 501.233 139.479C516.913 122.25 524.986 118.116 534.885 122.242C540.109 124.419 541.398 126.105 543.669 133.735C545.133 138.652 546.331 144.552 546.331 146.846C546.331 164.928 529.669 182.854 507.977 188.111C503.29 189.247 495.783 192.003 491.296 194.235C465.56 207.035 476.47 233.726 507.487 233.845C521.235 233.898 533.132 228.855 548.036 216.657C575.165 194.453 608.584 170.695 621.91 164.142C643.307 153.618 672.515 149.584 693.062 154.315C714.26 159.196 722.468 180.516 711.547 202.332C705.829 213.752 704.153 214.258 683.85 210.695C651.286 204.981 622.874 207.542 594.52 218.748C570.718 228.155 545.076 242.022 540.675 247.865C531.609 259.903 533.799 272.605 546.391 281.006C561.588 291.146 565.355 295.503 566.322 304.058C567.606 315.42 564.656 320.921 552.844 329.185C537.261 340.089 532.766 350.082 538.5 361.076C542.059 367.9 547.804 372.629 558.27 377.349C571.964 383.525 581.397 384.404 596.946 380.953C615.554 376.823 628.472 378.111 641.221 385.367C662.065 397.23 673.11 411.623 680.25 436.236C682.726 444.773 683.443 452.705 683.397 471.094C683.33 497.972 681.216 506.309 672.086 515.706C651.399 536.996 619.704 507.761 608.617 457.164C603.835 435.335 598.421 423.493 589.113 414.495C576.928 402.718 546.733 390.612 535.015 392.806C527.534 394.206 516.341 405.42 513.987 413.874C510.02 428.121 512.706 436.954 526.756 455.877C553.486 491.875 561.201 506.646 562.941 525.163C564.057 537.038 561.997 541.619 553.406 546.359C544.694 551.167 537.483 552.363 529.744 550.285C520.592 547.826 515.4 541.839 514.614 532.839C510.499 485.685 507.58 473.656 497.36 461.745C486.693 449.315 469.273 444.686 455.213 450.545C444.31 455.09 442.39 461.474 444.907 484.82C445.813 493.225 445.582 498.004 444.139 500.692C441.97 504.736 432.898 509.352 427.123 509.352C417.853 509.352 403.989 488.07 396.393 462.182C391.761 446.391 387.268 440.995 378.756 440.995C369.097 440.995 364.454 444.992 361.219 456.089C356.776 471.336 358.551 485.487 368.647 515.304C378.492 544.378 379.738 547.375 395.519 579.92C404.393 598.221 407.245 605.945 407.852 613.324C408.889 625.941 405.921 634.581 399.132 638.711C388.851 644.964 382.612 642.202 374.457 627.788C366.534 613.784 364.158 602.841 362.334 571.954C359.741 528.057 350.846 489.602 335.744 456.995C328.379 441.095 325.625 437.937 319.128 437.937C305.576 437.937 295.209 451.858 295.071 470.245C294.996 480.2 295.699 482.53 302.149 493.709C306.087 500.535 310.478 509.553 311.906 513.749C314.529 521.457 315.136 540.639 313.005 548.466C311.219 555.024 302.145 558.663 287.569 558.666C272.032 558.669 266.406 555.981 262.722 546.797C258.276 535.712 259.249 525.127 266.772 502.76C274.757 479.022 275.879 462.684 270.358 450.559C266.964 443.104 259.567 436.239 254.929 436.239C244.93 436.239 229.566 469.855 218.201 516.601C212.142 541.521 210.078 553.424 202.945 604.582C198.19 638.686 195.479 648.293 187.521 659.232C176.351 674.586 150.503 681.723 142.558 671.646L142.554 671.634Z" fill="url(#paint0_linear_70_60)" stroke="url(#paint1_linear_70_60)"/>
<defs>
<linearGradient id="paint0_linear_70_60" x1="358.681" y1="0.920898" x2="358.681" y2="676.326" gradientUnits="userSpaceOnUse">
<stop stop-color="#FF8B03" stop-opacity="0.3"/>
<stop offset="1" stop-color="#F8DF00" stop-opacity="0.3"/>
</linearGradient>
<linearGradient id="paint1_linear_70_60" x1="358.681" y1="0.920898" x2="358.681" y2="676.326" gradientUnits="userSpaceOnUse">
<stop stop-color="#FF8B03" stop-opacity="0.3"/>
<stop offset="1" stop-color="#F8DF00" stop-opacity="0.3"/>
</linearGradient>
</defs>
</svg>
